<?xml version="1.0" standalone="no"?>
<!DOCTYPE svg PUBLIC "-//W3C//DTD SVG 20010904//EN"
 "http://www.w3.org/TR/2001/REC-SVG-20010904/DTD/svg10.dtd">
<svg version="1.0" xmlns="http://www.w3.org/2000/svg"
 width="800.000000pt" height="800.000000pt" viewBox="0 0 800.000000 800.000000"
 preserveAspectRatio="xMidYMid meet">
<metadata>
Created by potrace 1.14, written by Peter Selinger 2001-2017
</metadata>
<g transform="translate(0.000000,800.000000) scale(0.100000,-0.100000)"
fill="#000000" stroke="none">
<path d="M3800 6309 c-575 -66 -1114 -349 -1486 -782 -235 -274 -401 -590
-490 -933 -30 -114 -63 -302 -64 -356 0 -17 35 -18 589 -18 l588 0 18 73 c70
296 290 578 565 725 164 88 341 132 530 132 322 0 603 -119 822 -348 132 -138
223 -299 275 -484 l27 -98 588 0 c517 0 588 2 588 15 0 88 -65 389 -117 540
-47 138 -167 379 -250 505 -384 581 -997 955 -1685 1029 -112 13 -389 12 -498
0z"/>
<path d="M3875 4740 c-226 -59 -401 -206 -495 -414 -138 -304 -41 -686 223
-883 496 -369 1193 -25 1189 587 -1 172 -55 325 -163 458 -99 123 -239 212
-394 252 -103 26 -262 26 -360 0z"/>
<path d="M1760 3814 c0 -45 35 -243 61 -346 164 -655 611 -1204 1224 -1504
885 -432 1947 -254 2641 444 294 296 498 653 598 1044 29 114 66 316 66 363 0
13 -78 15 -590 15 l-590 0 -5 -27 c-91 -426 -407 -756 -833 -871 -88 -23 -114
-26 -277 -26 -163 0 -189 3 -277 26 -402 109 -706 408 -815 801 l-27 97 -588
0 c-536 0 -588 -1 -588 -16z"/>
</g>
</svg>
